<svg xmlns="http://www.w3.org/2000/svg"  viewBox="0 0 100 100" width="100px" height="100px"><path fill="#78a0cf" d="M13,27c-1.105,0-2,0.895-2,2s0.895,2,2,2s2-0.895,2-2S14.105,27,13,27z"/><circle cx="77" cy="13" r="1" fill="#f1bc19"/><circle cx="50" cy="50" r="37" fill="#cee1f4"/><circle cx="83" cy="15" r="4" fill="#f1bc19"/><circle cx="87" cy="24" r="2" fill="#78a0cf"/><circle cx="81" cy="76" r="2" fill="#fbcd59"/><circle cx="15" cy="63" r="4" fill="#fbcd59"/><circle cx="25" cy="87" r="2" fill="#78a0cf"/><circle cx="18.375" cy="54.5" r="2.5" fill="#fff"/><circle cx="77.5" cy="30.5" r="1.5" fill="#fff"/><path fill="#fdd4b2" d="M59.263,80.274c-0.287,0-0.535-0.204-0.588-0.489l-3.597-19.182c-0.049-0.258,0.077-0.518,0.309-0.64	c0.088-0.047,0.184-0.07,0.279-0.07c0.155,0,0.309,0.061,0.424,0.176l0.527,0.526l-1.544-10.808	c-0.037-0.255,0.095-0.506,0.325-0.621c0.085-0.042,0.177-0.063,0.268-0.063c0.155,0,0.309,0.061,0.424,0.176l1.268,1.268	l-0.694-10.268h-0.023c-1.461,0-2.563,0.076-5.171,1.097v16.577l1.136,2.271c0.093,0.186,0.083,0.406-0.026,0.583	c-0.11,0.176-0.302,0.284-0.51,0.284h-8.392c-0.209,0-0.402-0.108-0.512-0.287c-0.109-0.178-0.117-0.4-0.022-0.586l1.134-2.215	V45.162c-1.273,0.818-2.866,1.629-4.196,2.01v8.384l1.136,2.271c0.093,0.186,0.083,0.406-0.026,0.583	c-0.11,0.176-0.302,0.284-0.51,0.284h-8.392c-0.208,0-0.4-0.108-0.51-0.284c-0.11-0.177-0.119-0.397-0.026-0.583l1.137-2.274	l0.085-8.561c-1.285-0.578-3.166-1.678-4.143-2.296c-0.488-0.309-1.973-1.248-2.419-3.616c-0.007-0.037-0.01-0.074-0.01-0.111v-0.12	c0-0.252,0.158-0.478,0.395-0.563c0.363-0.132,0.695-0.264,1.013-0.39c0.812-0.322,1.578-0.628,2.556-0.804	c0.036-0.007,0.071-0.01,0.107-0.01c0.139,0,0.276,0.049,0.384,0.139c0.137,0.114,0.215,0.282,0.215,0.46	c0.035,0.173,0.042,0.481-0.314,0.8c-0.189,0.17-0.446,0.378-0.715,0.595c-0.217,0.176-0.442,0.358-0.644,0.53	c-0.062,0.053-0.067,0.117-0.065,0.152c0.002,0.04,0.017,0.096,0.079,0.137l0.149,0.101c0.649,0.405,1.671,0.837,2.573,1.219	c0.264,0.112,0.519,0.22,0.754,0.323V30.063l-1.136-2.271c-0.093-0.186-0.083-0.406,0.026-0.583	c0.108-0.176,0.301-0.284,0.509-0.284h8.392c0.208,0,0.4,0.108,0.51,0.284c0.11,0.177,0.119,0.397,0.026,0.583l-1.136,2.271v13.273	c1.126-0.639,3.175-1.898,4.196-2.661V28.864l-1.136-2.271c-0.093-0.186-0.083-0.406,0.026-0.583c0.11-0.176,0.302-0.284,0.51-0.284	h8.338c0.206,0,0.397,0.106,0.507,0.28c0.11,0.174,0.123,0.392,0.034,0.578l-1.087,2.275v8.969c0.99-0.261,2.791-0.649,4.707-0.649	c0.064,0,0.128,0,0.192,0.001l-0.104-3.042c-0.006-0.162,0.055-0.32,0.168-0.437c0.113-0.117,0.269-0.183,0.431-0.183h6.594	c0.331,0,0.599,0.269,0.599,0.599v1.587c0.974-0.297,2.187-0.661,3-0.902c0.174-0.052,0.355-0.079,0.536-0.079	c0.623,0,1.201,0.314,1.545,0.841l0.043,0.065c0.759,1.155,3.07,4.668,4.28,6.162c0.092,0.113,0.138,0.257,0.133,0.402	c-0.026,0.628-0.05,1.366-0.077,2.155c-0.088,2.657-0.197,5.964-0.457,7.624c-0.019,0.12-0.242,1.096-0.242,1.096	c-0.025,0.11-0.081,0.21-0.161,0.29c-0.912,0.912-1.594,1.187-2.829,1.559c-0.692,0.231-2.142,0.587-3.024,0.741	c-0.07,0.013-0.141,0.019-0.213,0.019l0,0c-0.339,0-0.687-0.144-0.908-0.377c-0.312-0.366-0.688-0.721-1.086-1.095	c-0.142-0.134-0.286-0.27-0.429-0.408l0.487,7.255c0.016,0.249-0.123,0.483-0.351,0.586c-0.08,0.036-0.164,0.053-0.248,0.053	c-0.156,0-0.309-0.061-0.424-0.176l-1.288-1.288l0.512,9.223c0.014,0.248-0.126,0.479-0.354,0.581	c-0.079,0.035-0.162,0.052-0.245,0.052c-0.156,0-0.309-0.061-0.424-0.176l-0.904-0.904l-1.073,10.73	c-0.03,0.297-0.273,0.526-0.571,0.539C59.28,80.274,59.272,80.274,59.263,80.274z M64.059,50.331	c0.439,0.429,1.469,1.118,2.35,1.613c0.128-0.194,0.27-0.442,0.32-0.557c0.228-1.144,0.804-4.23,0.804-5.137	c0-3.276-0.323-5.482-0.808-7.787c-0.006-0.028-0.01-0.057-0.012-0.086c-0.498,0.072-1.765,0.259-2.655,0.426L64.059,50.331	L64.059,50.331z"/><polygon fill="#fbb97f" points="31.989,27.224 36.185,29.922 40.981,27.224"/><polygon fill="#fbb97f" points="31.989,58.395 36.185,55.697 40.981,58.395"/><polygon fill="#fbb97f" points="43.378,60.883 47.574,58.185 52.37,60.883"/><polygon fill="#fbb97f" points="43.378,25.726 47.574,28.423 52.37,25.726"/><polygon fill="#fbb97f" points="56.566,33.818 60.163,36.516 63.759,33.818"/><polygon fill="#ef8f70" points="32.875,46.967 32.875,55.398 31.989,58.395 36.185,55.697 36.185,29.922 31.989,27.224 32.875,30.176 32.875,43.409 33.488,44.308 33.488,46.706"/><polygon fill="#f59173" points="43.168,26.01 47.574,28.723 47.574,58.095 43.378,60.793 44.877,58.095 44.877,28.723"/><path fill="#f59173" d="M66.46,52.401c0,0,3.088-1.051,3.294-1.798c0.319-1.156,0.599-8.392,0.599-8.392L66.9,38.014	c0,0,0.812,5.46,0.634,7.525S66.46,52.401,66.46,52.401z"/><polygon fill="#f59173" points="59.263,79.974 58.364,64.389 60.163,66.188 58.964,53.599 60.762,55.398 60.163,36.516 56.83,33.904 58.065,52.101 55.266,49.156 57.275,61.91 55.428,60.136"/><path fill="none" stroke="#472b29" stroke-miterlimit="10" stroke-width="1.4" d="M59.263,80.274c-0.287,0-0.535-0.204-0.588-0.489	l-3.597-19.182c-0.049-0.258,0.077-0.518,0.309-0.64c0.088-0.047,0.184-0.07,0.279-0.07c0.155,0,0.309,0.061,0.424,0.176	l0.527,0.526l-1.544-10.808c-0.037-0.255,0.095-0.506,0.325-0.621c0.085-0.042,0.177-0.063,0.268-0.063	c0.155,0,0.309,0.061,0.424,0.176l1.268,1.268l-0.694-10.268h-0.023c-1.461,0-2.563,0.076-5.171,1.097v16.577l1.136,2.271	c0.093,0.186,0.083,0.406-0.026,0.583c-0.11,0.176-0.302,0.284-0.51,0.284h-8.392c-0.209,0-0.402-0.108-0.512-0.287	c-0.109-0.178-0.117-0.4-0.022-0.586l1.134-2.215V45.162c-1.273,0.818-2.866,1.629-4.196,2.01v8.384l1.136,2.271	c0.093,0.186,0.083,0.406-0.026,0.583c-0.11,0.176-0.302,0.284-0.51,0.284h-8.392c-0.208,0-0.4-0.108-0.51-0.284	c-0.11-0.177-0.119-0.397-0.026-0.583l1.137-2.274l0.085-8.561c-1.285-0.578-3.166-1.678-4.143-2.296	c-0.488-0.309-1.973-1.248-2.419-3.616c-0.007-0.037-0.01-0.074-0.01-0.111v-0.12c0-0.252,0.158-0.478,0.395-0.563	c0.363-0.132,0.695-0.264,1.013-0.39c0.812-0.322,1.578-0.628,2.556-0.804c0.036-0.007,0.071-0.01,0.107-0.01	c0.139,0,0.276,0.049,0.384,0.139c0.137,0.114,0.215,0.282,0.215,0.46c0.035,0.173,0.042,0.481-0.314,0.8	c-0.189,0.17-0.446,0.378-0.715,0.595c-0.217,0.176-0.442,0.358-0.644,0.53c-0.062,0.053-0.067,0.117-0.065,0.152	c0.002,0.04,0.017,0.096,0.079,0.137l0.149,0.101c0.649,0.405,1.671,0.837,2.573,1.219c0.264,0.112,0.519,0.22,0.754,0.323V30.063	l-1.136-2.271c-0.093-0.186-0.083-0.406,0.026-0.583c0.108-0.176,0.301-0.284,0.509-0.284h8.392c0.208,0,0.4,0.108,0.51,0.284	c0.11,0.177,0.119,0.397,0.026,0.583l-1.136,2.271v13.273c1.126-0.639,3.175-1.898,4.196-2.661V28.864l-1.136-2.271	c-0.093-0.186-0.083-0.406,0.026-0.583c0.11-0.176,0.302-0.284,0.51-0.284h8.338c0.206,0,0.397,0.106,0.507,0.28	c0.11,0.174,0.123,0.392,0.034,0.578l-1.087,2.275v8.969c0.99-0.261,2.791-0.649,4.707-0.649c0.064,0,0.128,0,0.192,0.001	l-0.104-3.042c-0.006-0.162,0.055-0.32,0.168-0.437c0.113-0.117,0.269-0.183,0.431-0.183h6.594c0.331,0,0.599,0.269,0.599,0.599	v1.587c0.974-0.297,2.187-0.661,3-0.902c0.174-0.052,0.355-0.079,0.536-0.079c0.623,0,1.201,0.314,1.545,0.841l0.043,0.065	c0.759,1.155,3.07,4.668,4.28,6.162c0.092,0.113,0.138,0.257,0.133,0.402c-0.026,0.628-0.05,1.366-0.077,2.155	c-0.088,2.657-0.197,5.964-0.457,7.624c-0.019,0.12-0.242,1.096-0.242,1.096c-0.025,0.11-0.081,0.21-0.161,0.29	c-0.912,0.912-1.594,1.187-2.829,1.559c-0.692,0.231-2.142,0.587-3.024,0.741c-0.07,0.013-0.141,0.019-0.213,0.019l0,0	c-0.339,0-0.687-0.144-0.908-0.377c-0.312-0.366-0.688-0.721-1.086-1.095c-0.142-0.134-0.286-0.27-0.429-0.408l0.487,7.255	c0.016,0.249-0.123,0.483-0.351,0.586c-0.08,0.036-0.164,0.053-0.248,0.053c-0.156,0-0.309-0.061-0.424-0.176l-1.288-1.288	l0.512,9.223c0.014,0.248-0.126,0.479-0.354,0.581c-0.079,0.035-0.162,0.052-0.245,0.052c-0.156,0-0.309-0.061-0.424-0.176	l-0.904-0.904l-1.073,10.73c-0.03,0.297-0.273,0.526-0.571,0.539C59.28,80.274,59.272,80.274,59.263,80.274z"/><path fill="none" stroke="#472b29" stroke-linecap="round" stroke-linejoin="round" stroke-miterlimit="10" stroke-width="1.4" d="M64.059,50.331c0.439,0.429,1.469,1.118,2.35,1.613c0.128-0.194,0.27-0.442,0.32-0.557c0.228-1.144,0.804-4.23,0.804-5.137	c0-3.276-0.323-5.482-0.808-7.787c-0.006-0.028-0.01-0.057-0.012-0.086c-0.498,0.072-1.765,0.259-2.655,0.426L64.059,50.331	L64.059,50.331z"/><path fill="none" stroke="#472b29" stroke-linecap="round" stroke-linejoin="round" stroke-miterlimit="10" stroke-width=".5" d="M66.46,52.401c0,0,3.088-1.051,3.294-1.798c0.319-1.156,0.599-8.392,0.599-8.392L66.9,38.014c0,0,0.812,5.46,0.634,7.525	S66.46,52.401,66.46,52.401z"/><polyline fill="none" stroke="#472b29" stroke-linecap="round" stroke-linejoin="round" stroke-miterlimit="10" stroke-width=".5" points="31.989,27.224 36.185,29.922 41.191,27.209"/><line x1="36.185" x2="36.185" y1="35.011" y2="29.922" fill="none" stroke="#472b29" stroke-linecap="round" stroke-linejoin="round" stroke-miterlimit="10" stroke-width=".5"/><line x1="36.185" x2="36.185" y1="38.989" y2="36.983" fill="none" stroke="#472b29" stroke-linecap="round" stroke-linejoin="round" stroke-miterlimit="10" stroke-width=".5"/><polyline fill="none" stroke="#472b29" stroke-linecap="round" stroke-linejoin="round" stroke-miterlimit="10" stroke-width=".5" points="31.779,58.41 36.185,55.697 36.185,40.978"/><line x1="41.191" x2="36.185" y1="58.41" y2="55.697" fill="none" stroke="#472b29" stroke-linecap="round" stroke-linejoin="round" stroke-miterlimit="10" stroke-width=".5"/><polyline fill="none" stroke="#472b29" stroke-linecap="round" stroke-linejoin="round" stroke-miterlimit="10" stroke-width=".5" points="43.168,26.01 47.574,28.573 52.37,25.726"/><line x1="47.574" x2="47.574" y1="33.014" y2="28.573" fill="none" stroke="#472b29" stroke-linecap="round" stroke-linejoin="round" stroke-miterlimit="10" stroke-width=".5"/><line x1="47.574" x2="47.574" y1="48.056" y2="35.011" fill="none" stroke="#472b29" stroke-linecap="round" stroke-linejoin="round" stroke-miterlimit="10" stroke-width=".5"/><line x1="47.574" x2="47.574" y1="52" y2="50" fill="none" stroke="#472b29" stroke-linecap="round" stroke-linejoin="round" stroke-miterlimit="10" stroke-width=".5"/><polyline fill="none" stroke="#472b29" stroke-linecap="round" stroke-linejoin="round" stroke-miterlimit="10" stroke-width=".5" points="43.378,60.793 47.574,58.095 47.574,54.056"/><line x1="52.37" x2="47.574" y1="60.883" y2="58.095" fill="none" stroke="#472b29" stroke-linecap="round" stroke-linejoin="round" stroke-miterlimit="10" stroke-width=".5"/><polyline fill="none" stroke="#472b29" stroke-linecap="round" stroke-linejoin="round" stroke-miterlimit="10" stroke-width=".5" points="56.435,33.701 60.163,36.516 63.759,33.818"/><polyline fill="none" stroke="#472b29" stroke-linecap="round" stroke-linejoin="round" stroke-miterlimit="10" stroke-width=".5" points="60.466,46.06 60.762,55.398 58.964,53.599 60.163,66.188 58.364,64.389 59.263,79.974"/><line x1="60.339" x2="60.401" y1="42.066" y2="44.012" fill="none" stroke="#472b29" stroke-linecap="round" stroke-linejoin="round" stroke-miterlimit="10" stroke-width=".5"/><line x1="60.163" x2="60.275" y1="36.516" y2="40.044" fill="none" stroke="#472b29" stroke-linecap="round" stroke-linejoin="round" stroke-miterlimit="10" stroke-width=".5"/></svg>