<svg xmlns="http://www.w3.org/2000/svg"  viewBox="0 0 100 100" width="100px" height="100px" fill-rule="evenodd" clip-rule="evenodd" baseProfile="basic"><path fill="#fff" fill-rule="evenodd" d="M19.8,55.1c-0.497,0-0.9,0.403-0.9,0.9s0.403,0.9,0.9,0.9	s0.9-0.403,0.9-0.9S20.297,55.1,19.8,55.1z M78.8,30.4c-0.387,0-0.7,0.313-0.7,0.7c0,0.387,0.313,0.7,0.7,0.7c0,0,0.001,0,0.001,0	c0.387,0,0.7-0.313,0.7-0.7C79.501,30.714,79.188,30.4,78.8,30.4C78.801,30.4,78.8,30.4,78.8,30.4z" clip-rule="evenodd"/><path fill="#f0bb18" fill-rule="evenodd" d="M76.2,11.2c-0.497,0-0.9,0.403-0.9,0.9	c0,0.497,0.403,0.9,0.9,0.9s0.9-0.403,0.9-0.9C77.1,11.603,76.697,11.2,76.2,11.2z M20.3,62.8c-0.497,0-0.9,0.402-0.901,0.899	c0,0.497,0.402,0.9,0.899,0.901c0.001,0,0.001,0,0.002,0c0.497,0,0.9-0.402,0.901-0.899s-0.402-0.9-0.899-0.901	C20.301,62.8,20.301,62.8,20.3,62.8z" clip-rule="evenodd"/><path fill="#cde0f3" fill-rule="evenodd" d="M49.1,11.8c-20.711,0-37.5,16.789-37.5,37.5	s16.789,37.5,37.5,37.5s37.5-16.789,37.5-37.5S69.811,11.8,49.1,11.8z" clip-rule="evenodd"/><path fill="#f0bb18" fill-rule="evenodd" d="M81.7,10.2c-2.209,0-4,1.791-4,4s1.791,4,4,4s4-1.791,4-4	S83.909,10.2,81.7,10.2z" clip-rule="evenodd"/><path fill="#ed3e54" fill-rule="evenodd" d="M85.7,21.4c-1.049,0-1.9,0.851-1.9,1.9	c0,1.049,0.851,1.9,1.9,1.9s1.9-0.851,1.9-1.9C87.6,22.251,86.749,21.4,85.7,21.4L85.7,21.4z" clip-rule="evenodd"/><path fill="#facc59" fill-rule="evenodd" d="M76.7,73.8c-1.049-0.002-1.901,0.848-1.903,1.897	s0.848,1.901,1.897,1.903c0.002,0,0.004,0,0.006,0c1.049,0.002,1.901-0.848,1.903-1.897s-0.848-1.901-1.897-1.903	C76.704,73.8,76.702,73.8,76.7,73.8z M13.5,58.8c-2.209,0-4,1.791-4,4c0,2.209,1.791,4,4,4s4-1.791,4-4	C17.5,60.591,15.709,58.8,13.5,58.8z" clip-rule="evenodd"/><path fill="#ed3e54" fill-rule="evenodd" d="M23.7,85c-1.049,0-1.9,0.851-1.9,1.9s0.851,1.9,1.9,1.9	s1.9-0.851,1.9-1.9S24.749,85,23.7,85L23.7,85z" clip-rule="evenodd"/><path fill="#fff" fill-rule="evenodd" d="M75.3,27.8c-0.994,0-1.8,0.806-1.8,1.8	c0,0.994,0.806,1.8,1.8,1.8s1.8-0.806,1.8-1.8C77.1,28.606,76.294,27.8,75.3,27.8z M17.2,48.2c-1.381,0-2.5,1.119-2.5,2.5	s1.119,2.5,2.5,2.5s2.5-1.119,2.5-2.5S18.581,48.2,17.2,48.2z" clip-rule="evenodd"/><path fill="#e4ab80" fill-rule="evenodd" d="M68.307,71.088c-0.4-2.1-0.51-3.046-2.51-3.646L64.9,67.143	l-0.777-0.299c-1.3-0.5-8.009-3.168-8.009-3.168c-0.6-0.2-1.414-1.202-1.614-1.702c-0.2-1-0.3-1.9-0.2-2.9c-1.6,0.6-3.3,1-5,1.4	c-1.9,0.2-6-2.3-6-2.3s-0.1,3-0.2,3.7c-0.2,0.6-0.91,1.822-1.51,1.922l-6.634,2.51c-0.8,0.2-2.049,0.377-2.749,0.777	c-1.5,1-2.306,1.791-2.906,3.591c0,0-0.5,3.3-0.5,3.4c0,0.5-0.1,1-0.1,1.5c7.8,5.3,11.992,9.302,22.692,8.902	c4.9-0.2,13.832-3.121,17.632-5.021C68.624,75.255,68.307,71.088,68.307,71.088z" clip-rule="evenodd"/><polygon fill="#fff" fill-rule="evenodd" points="43.011,62.206 48.93,64.426 54.956,62.156 57.548,64.931 56.951,76.288 41.889,77.782 39.139,68.458 39.737,64.573 41.949,63.736" clip-rule="evenodd"/><polygon fill="#ed3e54" fill-rule="evenodd" points="48.356,64.174 46.824,65.706 48.003,67.184 45.989,73.832 48.734,76.194 51.608,73.742 49.781,67.174 51.003,65.663 49.546,64.174" clip-rule="evenodd"/><path fill="#be7841" fill-rule="evenodd" d="M65.438,67.203l-0.657-0.239l-0.837-0.179	c-0.8-0.3-1.346-0.754-3.646-1.554l-2.032-0.657c-2.57,8.547-9.204,11.595-9.204,11.595s-6.575-2.988-9.324-11.595l-2.451,0.897	l-2.63,0.956c-0.8,0.2-1.81,0.497-2.51,0.897c-1.5,1-2.03,1.786-2.63,3.586c0,0-0.478,3.068-0.478,3.168c0,0.5-0.3,5.745-0.3,6.345	c6.909,3.663,12.912,6.244,20.264,6.184c10.598,0,16.243-3.953,20.043-5.853c-0.2-4.2-0.745-10.179-0.745-10.179	C68,68.374,67.538,67.803,65.438,67.203z" clip-rule="evenodd"/><path fill="none" stroke="#facc59" stroke-miterlimit="10" stroke-width="2" d="M39.677,65.111c0,0,2.63,6.933,9.025,11.117c6.575-4.184,9.324-11.296,9.324-11.296" clip-rule="evenodd"/><path fill="#ecbb93" fill-rule="evenodd" d="M60.9,44.374h-0.4c-1,0-1.2,0.3-1.2-0.3c0.1-1-0.1-5.3-0.1-5.5 c0-4.4-4.7-8-10.5-8.2h-0.2c-5.8,0.2-10.5,3.8-10.5,8.2c0,0.2-0.2,4.5-0.1,5.5c0,0.6-0.2,0.2-1.2,0.3h-0.4 c-1,0-2.003,0.898-2.303,1.798c0,0.815,0.654,3.369,1.454,4.769c0.4,0.8,1.249,0.933,1.949,1.433c0.3,0.2,0.5,0.6,0.6,1 c0.5,1.6,1.613,3.041,2.866,4.194c0.624,0.575,4.675,4.336,8.075,4.136s6.945-3.743,7.558-4.33c1.176-1.126,2.2-2.4,2.7-4 c0-0.4,0.3-0.8,0.6-1c0.7-0.5,1.4-0.6,1.8-1.4c0.8-1.4,1.398-4.461,1.4-5.1C62.7,44.974,61.8,44.374,60.9,44.374z" clip-rule="evenodd"/><path fill="#472b29" d="M48.674,62.212c-3.038,0-6.375-2.646-8.127-4.259c-1.06-0.975-2.426-2.518-3.023-4.43 c-0.09-0.356-0.24-0.626-0.4-0.732c-0.224-0.16-0.451-0.272-0.671-0.384c-0.519-0.262-1.106-0.559-1.448-1.242 c-0.826-1.443-1.507-4.062-1.507-4.993l0.026-0.158c0.342-1.029,1.502-2.139,2.777-2.139h0.4c0.27-0.028,0.504-0.018,0.685,0 c-0.045-0.874,0.026-3.003,0.097-4.806c0.011-0.271,0.018-0.452,0.018-0.495c0-4.665,4.824-8.486,10.983-8.698l0.217,0 c6.176,0.212,11,4.034,11,8.7c0,0.042,0.007,0.222,0.018,0.494c0.07,1.806,0.142,3.94,0.094,4.85 c0.177-0.021,0.402-0.043,0.688-0.043h0.4c1.155,0,2.213,0.757,2.575,1.842l0.026,0.078l0,0.082 c-0.002,0.676-0.613,3.854-1.466,5.346c-0.331,0.665-0.868,0.951-1.342,1.203c-0.194,0.104-0.398,0.211-0.602,0.356 c-0.194,0.13-0.39,0.388-0.39,0.593l-0.023,0.149c-0.457,1.461-1.356,2.799-2.832,4.212l-0.082,0.078 c-3.585,3.46-6.217,4.297-7.793,4.39C48.872,62.209,48.773,62.212,48.674,62.212z M34.5,46.252c0.042,0.799,0.653,3.158,1.386,4.44 c0.207,0.412,0.564,0.592,1.018,0.821c0.258,0.13,0.525,0.265,0.788,0.453c0.492,0.327,0.71,0.946,0.794,1.286 c0.523,1.671,1.769,3.071,2.72,3.946c1.382,1.272,4.849,4.175,7.708,4.006c1.408-0.083,3.792-0.863,7.158-4.111l0.084-0.082 c1.326-1.27,2.138-2.456,2.549-3.725c0.037-0.565,0.43-1.07,0.819-1.33c0.228-0.163,0.468-0.292,0.699-0.416 c0.423-0.226,0.729-0.389,0.931-0.792c0.742-1.301,1.297-4.098,1.344-4.797c-0.249-0.63-0.907-1.079-1.597-1.079h-0.4 c-0.287,0-0.502,0.027-0.662,0.048c-0.272,0.035-0.556,0.071-0.794-0.14C58.8,44.567,58.8,44.246,58.8,44.074 c0.08-0.824-0.037-3.834-0.081-4.968c-0.012-0.297-0.019-0.493-0.019-0.532c0-4.056-4.494-7.51-10.017-7.7l-0.183,0 c-5.506,0.19-10,3.644-10,7.7c0,0.04-0.007,0.235-0.019,0.533c-0.044,1.133-0.161,4.143-0.083,4.917 c0.002,0.216,0.002,0.526-0.233,0.732c-0.225,0.197-0.487,0.162-0.698,0.134c-0.164-0.022-0.389-0.051-0.716-0.019l-0.45,0.002 C35.538,44.874,34.761,45.585,34.5,46.252z"/><path fill="#512c2b" fill-rule="evenodd" d="M48.8,53.174c0.7,0,1.3-0.3,1.8-0.8c0,0,0-0.1,0-0.2l0,0l0,0	c0,0-0.1,0-0.2,0l0,0c-0.9,0.8-2.3,0.8-3.2,0h-0.1H47c0,0,0,0.1,0,0.2l0,0C47.5,52.974,48.1,53.174,48.8,53.174z" clip-rule="evenodd"/><path fill="#d2a37d" fill-rule="evenodd" d="M60.9,49.074l-0.6-0.1l0.2-1.8l-1,0.4l-0.2-0.6l1.5-0.6	c0.1,0,0.2,0,0.3,0c0.1,0.1,0.1,0.2,0.1,0.3L60.9,49.074z M36.7,48.674l-0.3-2.3c0-0.1,0-0.2,0.1-0.3s0.2-0.1,0.3,0l1.5,0.6	l-0.2,0.5l-1-0.4l0.2,1.8L36.7,48.674z" clip-rule="evenodd"/><polygon fill="#ed3e54" fill-rule="evenodd" points="46.833,38.039 45.587,40.183 46.887,40.559 45.08,42.965 49.767,41.157 48.356,40.405 50.386,38.799" clip-rule="evenodd"/><path fill="#472b29" d="M43.502,52.173c-2.489,0-4.515-2.013-4.515-4.487c0-2.474,2.025-4.486,4.515-4.486 c2.49,0,4.515,2.013,4.515,4.486C48.017,50.161,45.992,52.173,43.502,52.173z M43.502,44.2c-1.938,0-3.515,1.564-3.515,3.486 c0,1.923,1.577,3.487,3.515,3.487c1.938,0,3.515-1.564,3.515-3.487C47.017,45.764,45.44,44.2,43.502,44.2z"/><path fill="#472b29" d="M54.514,52.173c-2.474,0-4.486-2.013-4.486-4.487c0-2.474,2.013-4.486,4.486-4.486 c2.474,0,4.487,2.013,4.487,4.486C59,50.161,56.988,52.173,54.514,52.173z M54.514,44.2c-1.922,0-3.486,1.564-3.486,3.486 c0,1.923,1.564,3.487,3.486,3.487c1.923,0,3.487-1.564,3.487-3.487C58,45.764,56.437,44.2,54.514,44.2z"/><path fill="#472b29" fill-rule="evenodd" d="M36.552,44.203c-0.991-2.165-1.577-4.529-0.823-7.855	c0.948-4.184,5.69-5.69,5.69-5.69s1.667-1.972,3.3-2.54c4.566-1.588,10.227-0.269,14.161,4.213	c4.407,5.021,2.287,9.707,0.838,11.988c-2.79-5.851-9.429-2.392-15.986-8.209c-1.811,5.315-5.326,5.984-5.638,11.044L36.552,44.203z" clip-rule="evenodd"/><path fill="none" stroke="#472b29" stroke-miterlimit="10" d="M45.376,55.658	c2.514,1.342,4.65,1.299,7.171,0" clip-rule="evenodd"/><rect width="3.113" height="1" x="47.34" y="46.69" fill="#472b29"/><path fill="#472b29" fill-rule="evenodd" d="M39.988,64.412l0.013,20.7c0,0-4.188-1.476-5.686-2.15	c-2.454-1.104-5.516-2.876-5.516-2.876s-0.279-7.856,0.956-10.253C31.614,66.229,39.988,64.412,39.988,64.412z" clip-rule="evenodd"/><path fill="#472b29" fill-rule="evenodd" d="M58.05,64.544l-0.048,20.792c0,0,4.648-1.682,6.184-2.264	c2.437-0.923,4.859-2.429,4.859-2.429s-0.418-8.7-1.017-11.135C67.474,67.255,58.05,64.544,58.05,64.544z" clip-rule="evenodd"/><path fill="#472b29" d="M48.809,86.993c-0.043,0-0.086,0-0.13,0c-11.165-0.036-20.284-6.46-20.375-6.525l-0.236-0.168 l0.913-9.076c0.147-2.158,1.208-3.684,3.065-4.394l9.082-3.279c1.159-0.535,1.934-1.744,1.937-3.062l0.001-0.758l1,0.002 l-0.001,0.758c-0.003,1.707-1.007,3.271-2.558,3.984l-9.112,3.292c-1.5,0.574-2.294,1.733-2.417,3.542l-0.856,8.507 c1.48,0.985,9.707,6.146,19.56,6.178c0.041,0,0.083,0,0.123,0c11.361,0,18.847-5.055,20.185-6.03l-0.923-8.635 c-0.125-1.827-0.918-2.986-2.428-3.564l-9.064-3.272c-1.589-0.729-2.593-2.293-2.597-4l-0.003-1.315l1-0.002l0.003,1.315 c0.002,1.319,0.778,2.527,1.976,3.078l9.034,3.26c1.867,0.714,2.928,2.239,3.076,4.414l0.981,9.17l-0.214,0.171 C69.503,80.844,61.684,86.993,48.809,86.993z"/><path fill="#512c2b" fill-rule="evenodd" d="M54.546,46.036c-0.29,0-0.555,0.114-0.771,0.298	c0.026-0.004,0.05-0.018,0.077-0.018c0.367,0,0.664,0.34,0.664,0.759s-0.297,0.759-0.664,0.759c-0.26,0-0.48-0.175-0.588-0.424	c-0.002,0.035-0.009,0.068-0.009,0.103c0,0.816,0.578,1.477,1.292,1.477s1.292-0.661,1.292-1.477S55.26,46.036,54.546,46.036z" clip-rule="evenodd"/><path fill="#512c2b" fill-rule="evenodd" d="M43.449,46.01c-0.29,0-0.555,0.114-0.771,0.298	c0.026-0.004,0.05-0.018,0.077-0.018c0.367,0,0.664,0.34,0.664,0.759s-0.297,0.759-0.664,0.759c-0.26,0-0.48-0.175-0.588-0.424	c-0.002,0.035-0.009,0.068-0.009,0.103c0,0.816,0.578,1.477,1.292,1.477s1.292-0.661,1.292-1.477S44.162,46.01,43.449,46.01z" clip-rule="evenodd"/></svg>